<svg width="26" height="26" viewBox="0 0 26 26" fill="none" xmlns="http://www.w3.org/2000/svg">
<path d="M23.2143 26C24.7232 26 26 24.7812 26 23.2143V2.78571C26 1.27679 24.7232 0 23.2143 0H2.78571C1.21875 0 0 1.27679 0 2.78571V23.2143C0 24.7812 1.21875 26 2.78571 26H23.2143ZM11.317 20.3125C10.9688 20.7188 10.3304 20.7188 9.98214 20.3125L3.94643 14.2768C3.59821 13.9286 3.59821 13.3482 3.94643 13L5.28125 11.6652C5.62946 11.317 6.20982 11.317 6.55804 11.6652L10.6786 15.7277L19.3839 7.02232C19.7321 6.67411 20.3125 6.67411 20.6607 7.02232L21.9955 8.35714C22.3438 8.70536 22.3438 9.28571 21.9955 9.63393L11.317 20.3125Z" fill="#3F4C6F"/>
</svg>
