<svg width="50" height="50" viewBox="0 0 50 50" fill="none" xmlns="http://www.w3.org/2000/svg">
<path d="M41.4453 36.168L11.0781 12.4531C10.9258 12.3516 10.7227 12.3008 10.5703 12.3008C10.2656 12.3008 10.0625 12.4023 9.91016 12.5547L9.40234 13.2148C9.30078 13.3672 9.19922 13.5195 9.19922 13.7227C9.19922 13.9766 9.35156 14.2305 9.55469 14.332L39.9219 38.0977C40.0234 38.1992 40.2266 38.25 40.3789 38.25C40.6836 38.25 40.8867 38.1484 41.0391 37.9453L41.5469 37.3359C41.6484 37.1836 41.75 37.0312 41.75 36.8281C41.75 36.5742 41.5977 36.3203 41.4453 36.168ZM24.2812 19.7148L31.1367 25.0469C31.0352 22 28.5469 19.5625 25.5 19.5625C25.0938 19.6133 24.6875 19.6133 24.2812 19.7148ZM26.668 30.8359L19.8125 25.5039C19.9141 28.5508 22.4023 30.9375 25.5 30.9375C25.8555 30.9375 26.2617 30.9375 26.668 30.8359ZM25.5 17.9375C30.4766 17.9375 35.0977 20.7305 37.5352 25.25C36.9258 26.418 36.2148 27.4336 35.3008 28.3477L37.2305 29.8203C38.2969 28.7031 39.2109 27.4336 39.9219 26.0117C40.0234 25.8086 40.125 25.5547 40.125 25.3008C40.125 24.9961 40.0234 24.7422 39.9219 24.5391C37.1797 19.1562 31.6953 15.5 25.5 15.5C23.6211 15.5 21.8438 15.8555 20.168 16.4648L22.5039 18.3438C23.4688 18.0898 24.4844 17.9375 25.5 17.9375ZM25.5 32.5625C20.4727 32.5625 15.8516 29.7695 13.4141 25.25C14.0234 24.1328 14.7344 23.1172 15.6484 22.2031L13.7188 20.7305C12.6523 21.8477 11.7383 23.1172 11.0273 24.5391C10.9258 24.7422 10.875 24.9961 10.875 25.25C10.875 25.5547 10.9258 25.8086 11.0273 26.0117C13.7695 31.3945 19.2539 35 25.5 35C27.3281 35 29.1055 34.6445 30.7812 34.0859L28.4453 32.207C27.4805 32.4609 26.4648 32.5625 25.5 32.5625Z" fill="#3F4C6F"/>
</svg>
