<svg width="50" height="50" viewBox="0 0 50 50" fill="none" xmlns="http://www.w3.org/2000/svg">
<path d="M25 19.5625C24.4414 19.6133 23.8828 19.6641 23.375 19.8164C23.6289 20.2227 23.7305 20.7305 23.7812 21.1875C23.7812 22.7617 22.4609 24.0312 20.9375 24.0312C20.4297 24.0312 19.9219 23.9297 19.5664 23.6758C19.4141 24.1836 19.3125 24.6914 19.3125 25.25C19.3125 28.3984 21.8516 30.9375 25 30.9375C28.1484 30.9375 30.6875 28.3984 30.6875 25.25C30.6875 22.1523 28.1484 19.6133 25 19.6133V19.5625ZM39.4219 24.5391C36.6797 19.1562 31.1953 15.5 25 15.5C18.7539 15.5 13.2695 19.1562 10.5273 24.5391C10.4258 24.7422 10.375 24.9961 10.375 25.25C10.375 25.5547 10.4258 25.8086 10.5273 26.0117C13.2695 31.3945 18.7539 35 25 35C31.1953 35 36.6797 31.3945 39.4219 26.0117C39.5234 25.8086 39.5742 25.5547 39.5742 25.3008C39.5742 24.9961 39.5234 24.7422 39.4219 24.5391ZM25 32.5625C19.9727 32.5625 15.3516 29.7695 12.9141 25.25C15.3516 20.7305 19.9727 17.9375 25 17.9375C29.9766 17.9375 34.5977 20.7305 37.0352 25.25C34.5977 29.7695 29.9766 32.5625 25 32.5625Z" fill="#3F4C6F"/>
</svg>
