<svg width="26" height="26" viewBox="0 0 26 26" fill="none" xmlns="http://www.w3.org/2000/svg">
<path d="M23.2143 0H2.78571C1.21875 0 0 1.27679 0 2.78571V23.2143C0 24.7812 1.21875 26 2.78571 26H23.2143C24.7232 26 26 24.7812 26 23.2143V2.78571C26 1.27679 24.7232 0 23.2143 0ZM22.8661 23.2143H3.13393C2.90179 23.2143 2.78571 23.0982 2.78571 22.8661V3.13393C2.78571 2.95982 2.90179 2.78571 3.13393 2.78571H22.8661C23.0402 2.78571 23.2143 2.95982 23.2143 3.13393V22.8661C23.2143 23.0982 23.0402 23.2143 22.8661 23.2143Z" fill="#3F4C6F"/>
</svg>
